
<svg width="770.4534423828125px" height="120.8px" xmlns="http://www.w3.org/2000/svg" viewBox="-135.22672119140623 14.600000000000001 770.4534423828125 120.8" style="background: rgba(0, 0, 0, 0);" preserveAspectRatio="xMidYMid"><defs><linearGradient id="editing-gradient-gradient" x1="0" x2="1" y1="0.5" y2="0.5" gradientUnits="objectBoundingBox"><stop offset="0" stop-color="#f0f"></stop><stop offset="1" stop-color="#0ff"></stop></linearGradient></defs><g><g transform="translate(-26.07770624756813, 97.46500015258789)"><path d="M24.96-4.80L24.96-4.80L24.96-4.80Q24.96-9.28 26.75-18.24L26.75-18.24L17.28-18.24L13.76 0L0.38 0L8.51-42.24L22.02-42.24L18.30-23.36L27.78-23.36L31.30-42.24L44.80-42.24L44.80-42.24Q43.90-37.50 42.75-32.19L42.75-32.19L40.58-21.76L40.58-21.76Q38.14-9.60 38.14-4.29L38.14-4.29L38.14-4.29Q38.14-2.11 38.85-0.90L38.85-0.90L38.85-0.90Q35.65 1.28 31.90 1.28L31.90 1.28L31.90 1.28Q28.16 1.28 26.56-0.51L26.56-0.51L26.56-0.51Q24.96-2.30 24.96-4.80ZM74.43 1.28L74.43 1.28L74.43 1.28Q66.24 1.28 65.47-10.37L65.47-10.37L54.46-10.37L54.46-10.37Q53.18-7.42 52.29-4.86L52.29-4.86L50.62 0L41.66 0L61.82-42.24L75.58-42.24L78.27-11.14L78.27-11.14Q78.91-4.42 81.47-2.43L81.47-2.43L81.47-2.43Q79.62 1.28 74.43 1.28ZM59.97-23.17L56.45-15.04L65.28-15.04L64.51-31.49L64.51-33.22L59.97-23.17ZM90.30-31.17L90.30-31.17L90.30-31.17Q88.13-32.83 88.13-36.38L88.13-36.38L88.13-36.38Q88.13-39.94 90.46-41.79L90.46-41.79L90.46-41.79Q92.80-43.65 96.83-43.65L96.83-43.65L96.83-43.65Q99.39-43.65 105.47-42.75L105.47-42.75L109.82-42.11L109.82-42.11Q112-41.86 114.27-41.86L114.27-41.86L114.27-41.86Q116.54-41.86 118.08-42.82L118.08-42.82L118.08-42.82Q120.38-40.77 120.38-37.82L120.38-37.82L120.38-37.82Q120.38-34.88 117.76-32.77L117.76-32.77L117.76-32.77Q115.07-30.53 111.62-30.53L111.62-30.53L111.62-30.53Q109.95-30.53 107.26-30.98L107.26-30.98L107.26-30.98Q104.13-21.12 104.13-14.27L104.13-14.27L104.13-14.27Q104.13-7.42 107.58-3.84L107.58-3.84L107.58-3.84Q105.98-0.96 103.62 0.16L103.62 0.16L103.62 0.16Q101.25 1.28 97.70 1.28L97.70 1.28L97.70 1.28Q94.14 1.28 91.94-0.67L91.94-0.67L91.94-0.67Q89.73-2.62 89.73-6.66L89.73-6.66L89.73-6.66Q89.73-11.33 92.29-19.01L92.29-19.01L92.29-19.01Q94.85-26.62 98.69-32.45L98.69-32.45L98.69-32.45Q96.83-32.64 94.91-32.64L94.91-32.64L94.91-32.64Q90.94-32.64 90.30-31.17ZM142.21-4.80L142.21-4.80L142.21-4.80Q142.21-9.28 144-18.24L144-18.24L134.53-18.24L131.01 0L117.63 0L125.76-42.24L139.26-42.24L135.55-23.36L145.02-23.36L148.54-42.24L162.05-42.24L162.05-42.24Q161.15-37.50 160-32.19L160-32.19L157.82-21.76L157.82-21.76Q155.39-9.60 155.39-4.29L155.39-4.29L155.39-4.29Q155.39-2.11 156.10-0.90L156.10-0.90L156.10-0.90Q152.90 1.28 149.15 1.28L149.15 1.28L149.15 1.28Q145.41 1.28 143.81-0.51L143.81-0.51L143.81-0.51Q142.21-2.30 142.21-4.80ZM164.54-15.62L164.54-15.62L164.54-15.62Q164.54-27.71 170.82-35.33L170.82-35.33L170.82-35.33Q177.47-43.58 189.06-43.58L189.06-43.58L189.06-43.58Q197.44-43.58 201.66-39.52L201.66-39.52L201.66-39.52Q205.89-35.46 205.89-26.88L205.89-26.88L205.89-26.88Q205.89-13.82 199.23-6.21L199.23-6.21L199.23-6.21Q192.64 1.28 181.57 1.28L181.57 1.28L181.57 1.28Q172.93 1.28 168.74-3.04L168.74-3.04L168.74-3.04Q164.54-7.36 164.54-15.62ZM181.38-28.86L181.38-28.86L181.38-28.86Q178.50-17.34 178.50-8.26L178.50-8.26L178.50-8.26Q178.50-6.08 179.23-4.67L179.23-4.67L179.23-4.67Q179.97-3.26 181.92-3.26L181.92-3.26L181.92-3.26Q183.87-3.26 185.09-4.19L185.09-4.19L185.09-4.19Q186.30-5.12 187.26-7.23L187.26-7.23L187.26-7.23Q188.80-10.69 190.24-18.02L190.24-18.02L190.24-18.02Q191.68-25.34 191.81-28.38L191.81-28.38L191.81-28.38Q191.94-31.42 191.94-33.73L191.94-33.73L191.94-33.73Q191.94-36.03 191.23-37.50L191.23-37.50L191.23-37.50Q190.53-38.98 188.64-38.98L188.64-38.98L188.64-38.98Q186.75-38.98 185.47-37.82L185.47-37.82L185.47-37.82Q183.10-35.65 181.38-28.86ZM222.14 0L208.45 0L216.26-42.05L216.26-42.05Q222.59-42.75 231.84-42.75L231.84-42.75L231.84-42.75Q241.09-42.75 245.38-40.06L245.38-40.06L245.38-40.06Q249.66-37.38 249.66-31.97L249.66-31.97L249.66-31.97Q249.66-26.56 246.88-23.17L246.88-23.17L246.88-23.17Q244.10-19.78 239.30-18.69L239.30-18.69L239.30-18.69Q240.38-13.38 242.88-9.09L242.88-9.09L242.88-9.09Q245.18-5.06 247.87-3.78L247.87-3.78L247.87-3.78Q246.91-1.09 244.96 0.10L244.96 0.10L244.96 0.10Q243.01 1.28 240.22 1.28L240.22 1.28L240.22 1.28Q237.44 1.28 235.26-0.35L235.26-0.35L235.26-0.35Q233.09-1.98 231.36-4.99L231.36-4.99L231.36-4.99Q227.71-11.52 227.33-21.82L227.33-21.82L227.78-21.82L227.78-21.82Q232.51-21.95 234.88-24.42L234.88-24.42L234.88-24.42Q237.25-26.88 237.25-32.06L237.25-32.06L237.25-32.06Q237.25-38.53 231.81-38.78L231.81-38.78L230.40-38.78L230.40-38.78Q229.82-38.78 229.50-38.72L229.50-38.72L222.14 0ZM253.95-10.37L253.95-10.37L253.95-10.37Q251.90-11.84 251.90-14.66L251.90-14.66L251.90-14.66Q251.90-16.19 252.67-17.44L252.67-17.44L252.67-17.44Q253.44-18.69 254.98-18.88L254.98-18.88L267.58-18.88L267.58-18.88Q269.70-18.88 270.34-20.16L270.34-20.16L270.34-20.16Q271.36-19.58 271.81-18.37L271.81-18.37L271.81-18.37Q272.26-17.15 272.26-15.87L272.26-15.87L272.26-15.87Q272.26-14.59 271.26-13.34L271.26-13.34L271.26-13.34Q270.27-12.10 268.80-11.97L268.80-11.97L257.09-11.97L257.09-11.97Q255.74-11.97 255.10-11.55L255.10-11.55L255.10-11.55Q254.46-11.14 253.95-10.37ZM278.27-39.68L278.27-39.68L278.27-39.68Q280.13-43.52 285.28-43.52L285.28-43.52L285.28-43.52Q290.43-43.52 292.83-40.54L292.83-40.54L292.83-40.54Q295.23-37.57 295.23-30.72L295.23-30.72L295.23-7.87L310.78-42.18L318.40-42.18L298.50 0L283.52 0L281.60-30.72L281.60-30.72Q281.41-34.11 280.48-36.42L280.48-36.42L280.48-36.42Q279.55-38.72 278.27-39.68ZM316.35-15.62L316.35-15.62L316.35-15.62Q316.35-27.71 322.62-35.33L322.62-35.33L322.62-35.33Q329.28-43.58 340.86-43.58L340.86-43.58L340.86-43.58Q349.25-43.58 353.47-39.52L353.47-39.52L353.47-39.52Q357.70-35.46 357.70-26.88L357.70-26.88L357.70-26.88Q357.70-13.82 351.04-6.21L351.04-6.21L351.04-6.21Q344.45 1.28 333.38 1.28L333.38 1.28L333.38 1.28Q324.74 1.28 320.54-3.04L320.54-3.04L320.54-3.04Q316.35-7.36 316.35-15.62ZM333.18-28.86L333.18-28.86L333.18-28.86Q330.30-17.34 330.30-8.26L330.30-8.26L330.30-8.26Q330.30-6.08 331.04-4.67L331.04-4.67L331.04-4.67Q331.78-3.26 333.73-3.26L333.73-3.26L333.73-3.26Q335.68-3.26 336.90-4.19L336.90-4.19L336.90-4.19Q338.11-5.12 339.07-7.23L339.07-7.23L339.07-7.23Q340.61-10.69 342.05-18.02L342.05-18.02L342.05-18.02Q343.49-25.34 343.62-28.38L343.62-28.38L343.62-28.38Q343.74-31.42 343.74-33.73L343.74-33.73L343.74-33.73Q343.74-36.03 343.04-37.50L343.04-37.50L343.04-37.50Q342.34-38.98 340.45-38.98L340.45-38.98L340.45-38.98Q338.56-38.98 337.28-37.82L337.28-37.82L337.28-37.82Q334.91-35.65 333.18-28.86ZM365.50 0L369.22-18.82L369.22-18.82Q367.36-36.16 360.83-39.87L360.83-39.87L360.83-39.87Q362.18-41.54 364.35-42.46L364.35-42.46L364.35-42.46Q366.53-43.39 369.15-43.39L369.15-43.39L369.15-43.39Q371.78-43.39 373.76-42.46L373.76-42.46L373.76-42.46Q375.74-41.54 377.02-39.55L377.02-39.55L377.02-39.55Q379.46-35.78 379.46-26.75L379.46-26.75L379.46-22.14L379.46-22.14Q383.30-33.41 387.14-38.27L387.14-38.27L387.14-38.27Q391.04-43.26 395.90-43.26L395.90-43.26L395.90-43.26Q397.82-43.26 399.10-42.27L399.10-42.27L399.10-42.27Q400.38-41.28 401.02-39.81L401.02-39.81L401.02-39.81Q396.10-37.63 391.36-31.36L391.36-31.36L391.36-31.36Q386.62-25.09 383.55-16.32L383.55-16.32L379.78 0L365.50 0ZM423.04 1.28L423.04 1.28L423.04 1.28Q414.85 1.28 414.08-10.37L414.08-10.37L403.07-10.37L403.07-10.37Q401.79-7.42 400.90-4.86L400.90-4.86L399.23 0L390.27 0L410.43-42.24L424.19-42.24L426.88-11.14L426.88-11.14Q427.52-4.42 430.08-2.43L430.08-2.43L430.08-2.43Q428.22 1.28 423.04 1.28ZM408.58-23.17L405.06-15.04L413.89-15.04L413.12-31.49L413.12-33.22L408.58-23.17ZM440.38 0L433.34 0L441.02-42.24L454.78-42.24L464.77-13.18L470.08-42.24L477.18-42.18L469.38 0L454.72 0L445.50-27.97L440.38 0ZM512.19-13.25L512.19-13.25L512.19-13.25Q513.86-12.03 513.86-9.44L513.86-9.44L513.86-9.44Q513.86-6.85 512.74-5.02L512.74-5.02L512.74-5.02Q511.62-3.20 509.44-1.79L509.44-1.79L509.44-1.79Q504.77 1.22 496.61 1.22L496.61 1.22L496.61 1.22Q488.45 1.22 484-3.04L484-3.04L484-3.04Q479.55-7.30 479.55-14.85L479.55-14.85L479.55-14.85Q479.55-25.54 485.12-33.66L485.12-33.66L485.12-33.66Q489.34-39.68 496.90-42.24L496.90-42.24L496.90-42.24Q500.80-43.52 504.64-43.52L504.64-43.52L504.64-43.52Q508.48-43.52 510.85-43.01L510.85-43.01L510.85-43.01Q513.22-42.50 515.01-41.47L515.01-41.47L515.01-41.47Q518.91-39.23 518.91-35.65L518.91-35.65L518.91-35.65Q518.91-32.38 515.84-29.95L515.84-29.95L515.84-29.95Q513.02-27.78 510.72-27.78L510.72-27.78L510.72-27.78Q508.42-27.78 507.46-28.10L507.46-28.10L507.46-28.10Q507.71-30.40 507.71-31.90L507.71-31.90L507.71-31.90Q507.71-33.41 507.65-34.50L507.65-34.50L507.65-34.50Q507.58-35.58 507.26-36.61L507.26-36.61L507.26-36.61Q506.62-38.98 504.67-38.98L504.67-38.98L504.67-38.98Q502.72-38.98 500.77-37.15L500.77-37.15L500.77-37.15Q498.82-35.33 497.15-32.26L497.15-32.26L497.15-32.26Q493.38-25.28 493.38-17.02L493.38-17.02L493.38-17.02Q493.38-13.06 495.62-10.78L495.62-10.78L495.62-10.78Q497.86-8.51 502.66-8.51L502.66-8.51L502.66-8.51Q506.24-8.51 509.63-10.88L509.63-10.88L509.63-10.88Q511.10-11.90 512.19-13.25ZM546.50-9.86L546.50-9.86L546.50-9.86Q547.71-8.32 547.71-5.82L547.71-5.82L547.71-5.82Q547.71-2.37 545.15-0.54L545.15-0.54L545.15-0.54Q542.59 1.28 538.56 1.28L538.56 1.28L538.56 1.28Q536.26 1.28 532.74 0.77L532.74 0.77L532.74 0.77Q525.82-0.32 523.71-0.32L523.71-0.32L523.71-0.32Q521.60-0.32 520.77-0.22L520.77-0.22L520.77-0.22Q519.94-0.13 518.59 0L518.59 0L526.46-42.24L554.05-42.24L554.05-42.24Q554.05-38.34 552.16-36.29L552.16-36.29L552.16-36.29Q550.27-34.24 546.56-34.24L546.56-34.24L546.56-34.24Q542.85-34.24 539.07-35.97L539.07-35.97L537.09-24.77L548.48-24.77L548.48-24.77Q548.48-21.38 546.82-19.49L546.82-19.49L546.82-19.49Q545.15-17.60 542.37-17.60L542.37-17.60L542.37-17.60Q539.58-17.60 537.86-18.24L537.86-18.24L537.86-18.24Q536.13-18.88 535.94-19.07L535.94-19.07L533.63-6.98L533.63-6.98Q535.17-6.78 538.05-6.78L538.05-6.78L538.05-6.78Q542.98-6.78 546.50-9.86Z" fill="url(#editing-gradient-gradient)"></path></g></g></svg>