<svg width="1149.9200439453125px" height="193.76000366210937px" xmlns="http://www.w3.org/2000/svg" viewBox="-324.96002197265625 -21.880001831054685 1149.9200439453125 193.76000366210937" style="background: rgba(0, 0, 0, 0);" preserveAspectRatio="xMidYMid"><defs><linearGradient id="editing-gradow-gradient" x1="0" x2="1" y1="0.5" y2="0.5" gradientUnits="objectBoundingBox"><stop offset="0" stop-color="#f0f"></stop><stop offset="1" stop-color="#0ff"></stop></linearGradient><filter id="editing-gradow-filter" x="-100%" y="-100%" width="300%" height="300%"><feFlood flood-color="#757468" result="flood"></feFlood><feComposite operator="in" in2="SourceAlpha" in="flood" result="shadow"></feComposite><feOffset dx="-1.6" dy="-0.4" in="SourceGraphic" result="offset-1"></feOffset><feOffset dx="1.6" dy="0.4" in="shadow" result="offset-2"></feOffset><feMerge><feMergeNode in="offset-2"></feMergeNode><feMergeNode in="offset-1"></feMergeNode></feMerge></filter></defs><g filter="url(#editing-gradow-filter)"><g transform="translate(-166.11499786376953, 125.2450008392334)"><path d="M52.25-71.97L63.96-71.97L63.96 0L52.25 0L52.25-32.42L25.10-32.42L25.10-40.43L52.25-40.43L52.25-71.97ZM9.18 0L9.18-71.97L21.09-71.97L21.09 0L9.18 0ZM90.63-16.60L90.63-16.60L90.63-16.60Q90.63-12.21 92.43-10.06L92.43-10.06L92.43-10.06Q94.24-7.91 97.66-7.52L97.66-7.52L97.66 0.39L97.66 0.39Q97.27 0.49 96.39 0.49L96.39 0.49L96.39 0.49Q93.07 0.49 89.99-0.39L89.99-0.39L89.99-0.39Q86.91-1.27 84.57-3.22L84.57-3.22L84.57-3.22Q82.23-5.18 80.91-8.40L80.91-8.40L80.91-8.40Q79.59-11.62 79.59-16.31L79.59-16.31L79.59-16.31Q79.59-20.80 81.49-24.07L81.49-24.07L81.49-24.07Q83.40-27.34 86.38-29.44L86.38-29.44L86.38-29.44Q89.36-31.54 93.16-32.57L93.16-32.57L93.16-32.57Q96.97-33.59 100.88-33.59L100.88-33.59L105.18-33.59L105.18-26.66L103.03-26.66L103.03-26.66Q101.07-26.66 98.93-26.27L98.93-26.27L98.93-26.27Q96.78-25.88 94.92-24.80L94.92-24.80L94.92-24.80Q93.07-23.73 91.85-21.73L91.85-21.73L91.85-21.73Q90.63-19.73 90.63-16.60ZM121.00-17.09L121.00-16.31L121.00-16.31Q121.00-15.53 121.09-14.01L121.09-14.01L121.09-14.01Q121.19-12.50 121.48-10.94L121.48-10.94L121.48-10.94Q121.78-9.38 122.41-8.11L122.41-8.11L122.41-8.11Q123.05-6.84 124.12-6.45L124.12-6.45L121.00 0.10L121.00 0.10Q119.73 0.10 118.31-0.49L118.31-0.49L118.31-0.49Q116.89-1.07 115.58-2.15L115.58-2.15L115.58-2.15Q114.26-3.22 113.33-4.54L113.33-4.54L113.33-4.54Q112.40-5.86 111.91-7.42L111.91-7.42L111.91-7.42Q110.94-4.98 108.06-3.08L108.06-3.08L108.06-3.08Q105.18-1.17 101.66-0.29L101.66-0.29L101.66-7.71L101.66-7.71Q104.00-8.20 105.91-9.62L105.91-9.62L105.91-9.62Q107.81-11.04 109.18-12.99L109.18-12.99L109.18-33.59L109.18-33.59Q109.18-38.38 108.69-41.21L108.69-41.21L108.69-41.21Q108.20-44.04 107.03-45.36L107.03-45.36L107.03-45.36Q105.86-46.68 104.15-47.02L104.15-47.02L104.15-47.02Q102.44-47.36 100.10-47.36L100.10-47.36L100.10-47.36Q97.95-47.36 96.04-46.83L96.04-46.83L96.04-46.83Q94.14-46.29 92.53-45.56L92.53-45.56L92.53-45.56Q90.92-44.82 89.70-43.95L89.70-43.95L89.70-43.95Q88.48-43.07 87.89-42.58L87.89-42.58L83.50-49.32L83.50-49.32Q84.47-50.39 86.43-51.51L86.43-51.51L86.43-51.51Q88.38-52.64 90.92-53.52L90.92-53.52L90.92-53.52Q93.46-54.39 96.44-54.93L96.44-54.93L96.44-54.93Q99.41-55.47 102.64-55.47L102.64-55.47L102.64-55.47Q105.57-55.47 108.35-54.88L108.35-54.88L108.35-54.88Q111.13-54.30 113.43-52.93L113.43-52.93L113.43-52.93Q115.72-51.56 117.43-49.27L117.43-49.27L117.43-49.27Q119.14-46.97 119.82-43.55L119.82-43.55L119.82-43.55Q120.51-40.14 120.75-36.67L120.75-36.67L120.75-36.67Q121.00-33.20 121.00-29.79L121.00-29.79L121.00-17.09ZM155.37-47.07L155.37-16.70L155.37-16.70Q155.37-13.38 156.25-11.52L156.25-11.52L156.25-11.52Q157.13-9.67 158.74-8.69L158.74-8.69L158.74-8.69Q160.35-7.71 162.35-7.47L162.35-7.47L162.35-7.47Q164.36-7.23 166.60-7.23L166.60-7.23L166.60 0L166.60 0Q165.33 0.20 164.06 0.29L164.06 0.29L164.06 0.29Q162.99 0.39 161.47 0.44L161.47 0.44L161.47 0.44Q159.96 0.49 158.50 0.49L158.50 0.49L158.50 0.49Q157.03 0.49 155.52 0.39L155.52 0.39L155.52 0.39Q154.00 0.29 152.93 0.10L152.93 0.10L152.93 0.10Q149.61-0.49 147.75-2.78L147.75-2.78L147.75-2.78Q145.90-5.08 144.97-7.86L144.97-7.86L144.97-7.86Q144.04-10.64 143.80-13.28L143.80-13.28L143.80-13.28Q143.55-15.92 143.55-17.38L143.55-17.38L143.55-47.07L136.33-47.07L136.33-55.08L143.55-55.08L143.55-70.70L155.37-70.70L155.37-55.08L164.16-55.08L164.16-47.07L155.37-47.07ZM180.47 0L180.47-75.88L192.29-75.88L192.29 0L180.47 0ZM221.48-49.02L221.48-49.02L221.48-49.02Q223.14-47.36 224.07-45.17L224.07-45.17L224.07-45.17Q225-42.97 225.44-40.58L225.44-40.58L225.44-40.58Q225.88-38.18 225.98-35.74L225.98-35.74L225.98-35.74Q226.07-33.30 226.07-30.96L226.07-30.96L226.07-1.95L226.07 0L214.16 0L214.16-29.98L214.16-29.98Q214.16-33.30 213.87-36.33L213.87-36.33L213.87-36.33Q213.57-39.36 212.50-41.70L212.50-41.70L212.50-41.70Q211.43-44.04 209.57-45.36L209.57-45.36L209.57-45.36Q207.71-46.68 204.39-46.68L204.39-46.68L204.39-46.68Q203.03-46.68 200.73-46.24L200.73-46.24L200.73-46.24Q198.44-45.80 196.29-44.82L196.29-44.82L196.29-52.34L196.29-52.34Q198.93-53.71 202.00-54.69L202.00-54.69L202.00-54.69Q205.08-55.66 208.01-55.66L208.01-55.66L208.01-55.66Q212.40-55.66 215.43-53.86L215.43-53.86L215.43-53.86Q218.46-52.05 221.48-49.02ZM265.82-46.19L265.82-55.37L265.82-55.37Q271.19-55.08 275.59-52.78L275.59-52.78L275.59-52.78Q279.98-50.49 282.96-46.73L282.96-46.73L282.96-46.73Q285.94-42.97 287.60-37.99L287.60-37.99L287.60-37.99Q289.26-33.01 289.26-27.34L289.26-27.34L289.26-27.34Q289.26-21.68 287.55-16.75L287.55-16.75L287.55-16.75Q285.84-11.82 282.81-8.15L282.81-8.15L282.81-8.15Q279.79-4.49 275.39-2.25L275.39-2.25L275.39-2.25Q271.00 0 265.82 0.39L265.82 0.39L265.82-8.98L265.82-8.98Q270.70-10.06 273.78-15.14L273.78-15.14L273.78-15.14Q276.86-20.21 276.86-27.34L276.86-27.34L276.86-27.34Q276.86-30.96 276.12-34.13L276.12-34.13L276.12-34.13Q275.39-37.30 273.93-39.84L273.93-39.84L273.93-39.84Q272.46-42.38 270.41-44.04L270.41-44.04L270.41-44.04Q268.36-45.70 265.82-46.19L265.82-46.19ZM238.57-27.54L238.57-27.54L238.57-27.54Q238.57-33.20 240.23-38.09L240.23-38.09L240.23-38.09Q241.89-42.97 244.97-46.63L244.97-46.63L244.97-46.63Q248.05-50.29 252.34-52.54L252.34-52.54L252.34-52.54Q256.64-54.79 261.82-55.27L261.82-55.27L261.82-46.19L261.82-46.19Q256.93-45.12 254.00-40.04L254.00-40.04L254.00-40.04Q251.07-34.96 251.07-27.83L251.07-27.83L251.07-27.83Q251.07-24.22 251.81-21.00L251.81-21.00L251.81-21.00Q252.54-17.77 253.91-15.23L253.91-15.23L253.91-15.23Q255.27-12.70 257.28-11.04L257.28-11.04L257.28-11.04Q259.28-9.38 261.82-8.98L261.82-8.98L261.82 0.39L261.82 0.39Q256.45 0 252.15-2.29L252.15-2.29L252.15-2.29Q247.85-4.59 244.82-8.30L244.82-8.30L244.82-8.30Q241.80-12.01 240.19-16.99L240.19-16.99L240.19-16.99Q238.57-21.97 238.57-27.54ZM304.59-55.08L315.14-55.08L316.41-49.41L316.41-19.53L316.41-19.34L316.41 0L304.59 0L304.59-55.08ZM320.41-42.68L320.41-52.64L320.41-52.64Q322.85-54.00 326.27-54.74L326.27-54.74L326.27-54.74Q329.69-55.47 335.55-55.47L335.55-55.47L335.55-43.16L335.55-43.16Q332.81-43.95 328.91-44.04L328.91-44.04L328.91-44.04Q326.76-44.04 324.56-43.70L324.56-43.70L324.56-43.70Q322.36-43.36 320.41-42.68L320.41-42.68ZM348.14-33.50L379.20-33.50L379.20-23.63L348.14-23.63L348.14-33.50ZM415.72 0.39L393.36-71.97L406.74-71.97L421.88-15.53L421.88 0.39L415.72 0.39ZM425.88-18.65L441.11-71.97L454.39-71.97L430.96 0.39L425.88 0.39L425.88-18.65ZM493.36-46.19L493.36-55.37L493.36-55.37Q498.73-55.08 503.13-52.78L503.13-52.78L503.13-52.78Q507.52-50.49 510.50-46.73L510.50-46.73L510.50-46.73Q513.48-42.97 515.14-37.99L515.14-37.99L515.14-37.99Q516.80-33.01 516.80-27.34L516.80-27.34L516.80-27.34Q516.80-21.68 515.09-16.75L515.09-16.75L515.09-16.75Q513.38-11.82 510.35-8.15L510.35-8.15L510.35-8.15Q507.32-4.49 502.93-2.25L502.93-2.25L502.93-2.25Q498.54 0 493.36 0.39L493.36 0.39L493.36-8.98L493.36-8.98Q498.24-10.06 501.32-15.14L501.32-15.14L501.32-15.14Q504.39-20.21 504.39-27.34L504.39-27.34L504.39-27.34Q504.39-30.96 503.66-34.13L503.66-34.13L503.66-34.13Q502.93-37.30 501.46-39.84L501.46-39.84L501.46-39.84Q500-42.38 497.95-44.04L497.95-44.04L497.95-44.04Q495.90-45.70 493.36-46.19L493.36-46.19ZM466.11-27.54L466.11-27.54L466.11-27.54Q466.11-33.20 467.77-38.09L467.77-38.09L467.77-38.09Q469.43-42.97 472.51-46.63L472.51-46.63L472.51-46.63Q475.59-50.29 479.88-52.54L479.88-52.54L479.88-52.54Q484.18-54.79 489.36-55.27L489.36-55.27L489.36-46.19L489.36-46.19Q484.47-45.12 481.54-40.04L481.54-40.04L481.54-40.04Q478.61-34.96 478.61-27.83L478.61-27.83L478.61-27.83Q478.61-24.22 479.35-21.00L479.35-21.00L479.35-21.00Q480.08-17.77 481.45-15.23L481.45-15.23L481.45-15.23Q482.81-12.70 484.81-11.04L484.81-11.04L484.81-11.04Q486.82-9.38 489.36-8.98L489.36-8.98L489.36 0.39L489.36 0.39Q483.98 0 479.69-2.29L479.69-2.29L479.69-2.29Q475.39-4.59 472.36-8.30L472.36-8.30L472.36-8.30Q469.34-12.01 467.72-16.99L467.72-16.99L467.72-16.99Q466.11-21.97 466.11-27.54ZM572.36-55.08L584.28-55.08L584.28-55.08Q578.91-40.72 574.71-29.64L574.71-29.64L574.71-29.64Q570.51-18.55 567.38-10.21L567.38-10.21L567.38-10.21Q564.26-1.86 561.87 3.91L561.87 3.91L561.87 3.91Q559.47 9.67 557.47 13.53L557.47 13.53L557.47 13.53Q555.47 17.38 553.71 19.58L553.71 19.58L553.71 19.58Q551.95 21.78 550.10 22.95L550.10 22.95L550.10 22.95Q548.24 24.12 546.04 24.37L546.04 24.37L546.04 24.37Q543.85 24.61 541.02 24.61L541.02 24.61L541.02 24.61Q540.14 24.61 538.96 24.37L538.96 24.37L538.96 24.37Q537.79 24.12 536.67 23.78L536.67 23.78L536.67 23.78Q535.55 23.44 534.67 23.10L534.67 23.10L534.67 23.10Q533.79 22.75 533.50 22.66L533.50 22.66L533.50 22.66Q533.89 20.90 534.28 19.34L534.28 19.34L534.28 19.34Q534.57 17.97 534.91 16.75L534.91 16.75L534.91 16.75Q535.25 15.53 535.45 15.04L535.45 15.04L535.45 15.04Q536.23 15.04 537.84 15.53L537.84 15.53L537.84 15.53Q539.45 16.02 540.23 16.02L540.23 16.02L540.23 16.02Q541.80 16.02 543.02 15.87L543.02 15.87L543.02 15.87Q544.24 15.72 545.21 14.99L545.21 14.99L545.21 14.99Q546.19 14.26 547.07 12.84L547.07 12.84L547.07 12.84Q547.95 11.43 549.02 8.79L549.02 8.79L552.73 0L572.36-55.08ZM554.69-14.75L550.68-5.18L530.18-55.08L541.99-55.08L556.05-18.07L554.69-14.75ZM606.35-16.60L606.35-16.60L606.35-16.60Q606.35-12.21 608.15-10.06L608.15-10.06L608.15-10.06Q609.96-7.91 613.38-7.52L613.38-7.52L613.38 0.39L613.38 0.39Q612.99 0.49 612.11 0.49L612.11 0.49L612.11 0.49Q608.79 0.49 605.71-0.39L605.71-0.39L605.71-0.39Q602.64-1.27 600.29-3.22L600.29-3.22L600.29-3.22Q597.95-5.18 596.63-8.40L596.63-8.40L596.63-8.40Q595.31-11.62 595.31-16.31L595.31-16.31L595.31-16.31Q595.31-20.80 597.22-24.07L597.22-24.07L597.22-24.07Q599.12-27.34 602.10-29.44L602.10-29.44L602.10-29.44Q605.08-31.54 608.89-32.57L608.89-32.57L608.89-32.57Q612.70-33.59 616.60-33.59L616.60-33.59L620.90-33.59L620.90-26.66L618.75-26.66L618.75-26.66Q616.80-26.66 614.65-26.27L614.65-26.27L614.65-26.27Q612.50-25.88 610.64-24.80L610.64-24.80L610.64-24.80Q608.79-23.73 607.57-21.73L607.57-21.73L607.57-21.73Q606.35-19.73 606.35-16.60ZM636.72-17.09L636.72-16.31L636.72-16.31Q636.72-15.53 636.82-14.01L636.82-14.01L636.82-14.01Q636.91-12.50 637.21-10.94L637.21-10.94L637.21-10.94Q637.50-9.38 638.13-8.11L638.13-8.11L638.13-8.11Q638.77-6.84 639.84-6.45L639.84-6.45L636.72 0.10L636.72 0.10Q635.45 0.10 634.03-0.49L634.03-0.49L634.03-0.49Q632.62-1.07 631.30-2.15L631.30-2.15L631.30-2.15Q629.98-3.22 629.05-4.54L629.05-4.54L629.05-4.54Q628.13-5.86 627.64-7.42L627.64-7.42L627.64-7.42Q626.66-4.98 623.78-3.08L623.78-3.08L623.78-3.08Q620.90-1.17 617.38-0.29L617.38-0.29L617.38-7.71L617.38-7.71Q619.73-8.20 621.63-9.62L621.63-9.62L621.63-9.62Q623.54-11.04 624.90-12.99L624.90-12.99L624.90-33.59L624.90-33.59Q624.90-38.38 624.41-41.21L624.41-41.21L624.41-41.21Q623.93-44.04 622.75-45.36L622.75-45.36L622.75-45.36Q621.58-46.68 619.87-47.02L619.87-47.02L619.87-47.02Q618.16-47.36 615.82-47.36L615.82-47.36L615.82-47.36Q613.67-47.36 611.77-46.83L611.77-46.83L611.77-46.83Q609.86-46.29 608.25-45.56L608.25-45.56L608.25-45.56Q606.64-44.82 605.42-43.95L605.42-43.95L605.42-43.95Q604.20-43.07 603.61-42.58L603.61-42.58L599.22-49.32L599.22-49.32Q600.20-50.39 602.15-51.51L602.15-51.51L602.15-51.51Q604.10-52.64 606.64-53.52L606.64-53.52L606.64-53.52Q609.18-54.39 612.16-54.93L612.16-54.93L612.16-54.93Q615.14-55.47 618.36-55.47L618.36-55.47L618.36-55.47Q621.29-55.47 624.07-54.88L624.07-54.88L624.07-54.88Q626.86-54.30 629.15-52.93L629.15-52.93L629.15-52.93Q631.45-51.56 633.15-49.27L633.15-49.27L633.15-49.27Q634.86-46.97 635.55-43.55L635.55-43.55L635.55-43.55Q636.23-40.14 636.47-36.67L636.47-36.67L636.47-36.67Q636.72-33.20 636.72-29.79L636.72-29.79L636.72-17.09ZM655.37-55.08L665.92-55.08L667.19-49.51L667.19 0L655.37 0L655.37-55.08ZM696.39-49.02L696.39-49.02L696.39-49.02Q698.05-47.36 698.97-45.17L698.97-45.17L698.97-45.17Q699.90-42.97 700.34-40.58L700.34-40.58L700.34-40.58Q700.78-38.18 700.88-35.74L700.88-35.74L700.88-35.74Q700.98-33.30 700.98-30.96L700.98-30.96L700.98-1.95L700.98 0L689.06 0L689.06-29.98L689.06-29.98Q689.06-33.30 688.77-36.33L688.77-36.33L688.77-36.33Q688.48-39.36 687.40-41.70L687.40-41.70L687.40-41.70Q686.33-44.04 684.47-45.36L684.47-45.36L684.47-45.36Q682.62-46.68 679.30-46.68L679.30-46.68L679.30-46.68Q677.93-46.68 675.63-46.24L675.63-46.24L675.63-46.24Q673.34-45.80 671.19-44.82L671.19-44.82L671.19-52.34L671.19-52.34Q673.83-53.71 676.90-54.69L676.90-54.69L676.90-54.69Q679.98-55.66 682.91-55.66L682.91-55.66L682.91-55.66Q687.30-55.66 690.33-53.86L690.33-53.86L690.33-53.86Q693.36-52.05 696.39-49.02ZM759.18-47.17L753.91-40.82L753.91-40.82Q752.44-42.58 749.85-44.09L749.85-44.09L749.85-44.09Q747.27-45.61 742.97-45.90L742.97-45.90L742.97-55.27L742.97-55.27Q748.34-54.98 752.20-52.98L752.20-52.98L752.20-52.98Q756.05-50.98 759.18-47.17L759.18-47.17ZM742.97 0.39L742.97-9.28L742.97-9.28Q746.48-9.67 748.97-10.99L748.97-10.99L748.97-10.99Q751.46-12.30 753.71-14.06L753.71-14.06L758.11-7.71L758.11-7.71Q755.08-3.91 751.56-1.90L751.56-1.90L751.56-1.90Q748.05 0.10 742.97 0.39L742.97 0.39ZM715.72-27.54L715.72-27.54L715.72-27.54Q715.72-33.11 717.33-37.99L717.33-37.99L717.33-37.99Q718.95-42.87 722.07-46.58L722.07-46.58L722.07-46.58Q725.20-50.29 729.44-52.59L729.44-52.59L729.44-52.59Q733.69-54.88 738.96-55.27L738.96-55.27L738.96-45.80L738.96-45.80Q734.08-44.73 731.15-39.79L731.15-39.79L731.15-39.79Q728.22-34.86 728.22-27.83L728.22-27.83L728.22-27.83Q728.22-24.22 728.96-21.04L728.96-21.04L728.96-21.04Q729.69-17.87 731.05-15.43L731.05-15.43L731.05-15.43Q732.42-12.99 734.42-11.33L734.42-11.33L734.42-11.33Q736.43-9.67 738.96-9.28L738.96-9.28L738.96 0.39L738.96 0.39Q733.59 0.10 729.30-2.20L729.30-2.20L729.30-2.20Q725-4.49 721.97-8.25L721.97-8.25L721.97-8.25Q718.95-12.01 717.33-16.99L717.33-16.99L717.33-16.99Q715.72-21.97 715.72-27.54ZM800-46.39L800-55.57L800-55.57Q805.27-55.08 809.52-52.73L809.52-52.73L809.52-52.73Q813.77-50.39 816.80-46.68L816.80-46.68L816.80-46.68Q819.82-42.97 821.44-38.18L821.44-38.18L821.44-38.18Q823.05-33.40 823.05-28.22L823.05-28.22L823.05-28.22Q823.05-25.88 822.75-23.54L822.75-23.54L789.26-23.54L789.26-32.13L811.82-32.13L811.82-32.13Q811.82-34.67 810.99-37.01L810.99-37.01L810.99-37.01Q810.16-39.36 808.54-41.36L808.54-41.36L808.54-41.36Q806.93-43.36 804.79-44.73L804.79-44.73L804.79-44.73Q802.64-46.09 800-46.39L800-46.39ZM799.61-9.18L799.61-9.18L799.61-9.18Q800.68-9.18 802.29-9.42L802.29-9.42L802.29-9.42Q803.91-9.67 805.71-10.30L805.71-10.30L805.71-10.30Q807.52-10.94 809.33-11.91L809.33-11.91L809.33-11.91Q811.13-12.89 812.50-14.26L812.50-14.26L816.80-7.71L816.80-7.71Q813.57-3.71 809.28-1.66L809.28-1.66L809.28-1.66Q804.98 0.39 798.34 0.39L798.34 0.39L798.34 0.39Q792.97 0.39 788.28-1.81L788.28-1.81L788.28-1.81Q783.59-4.00 780.27-7.81L780.27-7.81L780.27-7.81Q776.95-11.62 775-16.70L775-16.70L775-16.70Q773.05-21.78 773.05-27.64L773.05-27.64L773.05-27.64Q773.05-33.20 774.85-38.18L774.85-38.18L774.85-38.18Q776.66-43.16 779.79-46.92L779.79-46.92L779.79-46.92Q782.91-50.68 787.06-53.03L787.06-53.03L787.06-53.03Q791.21-55.37 796.00-55.66L796.00-55.66L796.00-46.29L796.00-46.29Q792.38-45.61 790.04-43.36L790.04-43.36L790.04-43.36Q787.70-41.11 786.38-38.23L786.38-38.23L786.38-38.23Q785.06-35.35 784.52-32.32L784.52-32.32L784.52-32.32Q783.98-29.30 783.98-27.15L783.98-27.15L783.98-27.15Q783.98-23.34 784.91-20.07L784.91-20.07L784.91-20.07Q785.84-16.80 787.79-14.40L787.79-14.40L787.79-14.40Q789.75-12.01 792.63-10.60L792.63-10.60L792.63-10.60Q795.51-9.18 799.61-9.18Z" fill="url(#editing-gradow-gradient)"></path></g></g><style>text {
  font-size: 64px;
  font-family: Arial Black;
  dominant-baseline: central;
  text-anchor: middle;
}</style></svg>